# xmcd
# 
# Track frame offsets:
#	183
#	15558
#	31895
#	49308
#	65373
#	81863
#	99685
#	117038
#	134140
#	150895
#	176883
#
# Disc length: 2697 seconds
#
# Revision: 2
# Processed by: cddbd v1.5.1PL0 Copyright (c) Steve Scherf et al.
# Submitted via: Audio-CD-Archiv 3.00.486
#
DISCID=8c0a870b
DTITLE=Rick Layne and Lee York Valerie Azzouz - EN - SONIC (Deep Groove Records 1992)
DYEAR=1900
DGENRE=blues
TTITLE0=One Love
TTITLE1=How Much Longer
TTITLE2=Just A Little Bit
TTITLE3=Cross My Heart
TTITLE4=You're On My Mind
TTITLE5=Standing Alone
TTITLE6=No One Is To Blame
TTITLE7=I Can't Carry On
TTITLE8=Keep Your Promise
TTITLE9=One Love (Remix)
TTITLE10=No One Is To Blame (Remix)
EXTD=
EXTT0=
EXTT1=
EXTT2=
EXTT3=
EXTT4=
EXTT5=
EXTT6=
EXTT7=
EXTT8=
EXTT9=
EXTT10=
PLAYORDER=
